<?xml version="1.0" encoding="UTF-8" standalone="no"?>
<!-- Created with Inkscape (http://www.inkscape.org/) -->
<svg id="svg3336" xmlns:rdf="http://www.w3.org/1999/02/22-rdf-syntax-ns#" xmlns="http://www.w3.org/2000/svg" height="30" width="30" version="1.1" xmlns:cc="http://creativecommons.org/ns#" xmlns:dc="http://purl.org/dc/elements/1.1/" viewBox="0 0 30 30">
 <metadata id="metadata3341">
  <rdf:RDF>
   <cc:Work rdf:about="">
    <dc:format>image/svg+xml</dc:format>
    <dc:type rdf:resource="http://purl.org/dc/dcmitype/StillImage"/>
    <dc:title/>
   </cc:Work>
  </rdf:RDF>
 </metadata>
 <g id="layer1" transform="translate(0 -1022.4)">
  <g stroke="#fff" fill="none">
   <path id="path3348" stroke-miterlimit="1" stroke-width="1.104" d="m13.074 1041.4a9.4514 9.446 0 0 1 -11.34 -4.7581 9.4514 9.446 0 0 1 2.9651 -11.929 9.4514 9.446 0 0 1 12.249 1.0986 9.4514 9.446 0 0 1 0.79259 12.266"/>
   <circle id="path3342" cx="10.3" cy="1032.4" r="6.9639" stroke-width="1.0721px"/>
   <path id="path3343" d="m13.036 1041.6 9.2857 9.8215 5-5-9.375-8.3929" stroke-width="1px"/>
  </g>
  <g fill="#fff">
   <path id="path3347" d="m17.879 23.554c-2.4423-2.5822-4.4697-4.6949-4.5053-4.6949-0.03556 0-0.10853 0.04388-0.16215 0.0975-0.07048 0.07048-0.12536 0.01312-0.198-0.207l-0.10049-0.3045-0.64575 0.1756c-0.90891 0.24716-3.0321 0.26224-4.0289 0.0286-1.7367-0.407-2.987-1.113-4.2963-2.424-1.2868-1.289-1.8961-2.344-2.384-4.131-0.2781-1.018-0.2784-3.0563-0.0007-4.162 0.5141-2.0463 1.6234-3.7405 3.2589-4.9773 3.0208-2.2845 7.164-2.4072 10.325-0.3058 1.7584 1.169 3.0719 3.0492 3.6388 5.209 0.29068 1.1074 0.32672 2.8762 0.08122 3.9866-0.20818 0.94166-0.67851 2.0935-1.1687 2.8621l-0.39859 0.625 0.23095 0.18958c0.16146 0.13254 0.21435 0.24189 0.17578 0.36341-0.04528 0.14268 0.73693 0.88273 4.3654 4.1301 2.4313 2.1759 4.4206 3.9815 4.4206 4.0123 0 0.03082-0.9378 0.99321-2.084 2.1386l-2.084 2.0826-4.4406-4.6949zm-5.4539-6.2989c1.0692-0.33924 2.1459-0.96268 2.9233-1.6926 1.1421-1.0725 1.7448-2.0298 2.1792-3.4617 0.20771-0.68455 0.23941-0.94825 0.2448-2.0364 0.0067-1.3444-0.12726-2.0304-0.60912-3.1199-1.1718-2.6496-3.9404-4.4247-6.9012-4.4247-3.5058 0-6.6166 2.5503-7.3512 6.0268-0.17635 0.83461-0.13265 2.4569 0.08899 3.3036 0.71444 2.7291 2.7988 4.8018 5.5241 5.4932 0.9706 0.24622 2.9911 0.20055 3.9011-0.08819z" transform="translate(0 1022.4)"/>
   <path id="path4149" d="m17.7 24.783c-2.544-2.693-4.677-4.954-4.741-5.023-0.099-0.108-0.243-0.104-1.027 0.034-1.182 0.208-3.0902 0.153-4.115-0.118-3.6848-0.975-6.3396-3.63-7.3171-7.317-0.26408-0.996-0.32572-3.0087-0.12494-4.08 0.61147-3.2627 2.6142-5.8632 5.597-7.2673 3.2857-1.5467 6.998-1.2149 9.9877 0.89269 2.8662 2.0206 4.5072 5.6423 4.1229 9.0991-0.16321 1.4678-0.65331 2.9757-1.3002 4.0005-0.12836 0.20333-0.23337 0.40839-0.23337 0.45569 0 0.06004 8.3189 7.5716 9.3954 8.4835 0.03575 0.03028-1.2141 1.3337-2.7774 2.8964l-2.8424 2.8413-4.625-4.8974zm6.7639 1.4203c1.1667-1.1659 2.1212-2.1455 2.1212-2.1768 0-0.03134-1.4763-1.3776-3.2807-2.9918-1.804-1.613-3.683-3.293-4.174-3.733s-0.773-0.666-0.626-0.502c0.20462 0.22687 4.9873 4.5799 7.6286 6.9433l0.31783 0.28439-2.053 2.0595c-1.1292 1.1327-2.077 2.0494-2.1063 2.037-0.02928-0.01238-1.2117-1.248-2.6275-2.7457-5.0156-5.3057-6.2249-6.5333-6.3928-6.4894-0.11294 0.02953-0.18418-0.03412-0.25022-0.22356-0.06729-0.19302-0.13532-0.25235-0.25087-0.21878-0.0872 0.02534-0.33935 0.09745-0.56033 0.16025-0.25826 0.07339-0.97591 0.11454-2.0089 0.1152-1.4057 0.001-1.6959-0.024-2.3123-0.202-2.9623-0.85-5.3827-3.255-6.2189-6.178-0.2419-0.845-0.3322-2.7075-0.1812-3.7397 0.6694-4.5781 5.1218-7.9299 9.7394-7.3316 3.0249 0.39198 5.447 2.0892 6.7872 4.7561 0.50239 0.99972 0.75088 1.7775 0.8859 2.773 0.30054 2.2159-0.10402 3.9368-1.4778 6.2862-0.16797 0.28725-0.16787 0.2886 0.03239 0.42917 0.11049 0.07756 0.20089 0.20704 0.20089 0.28774 0 0.11607 0.02293 0.12379 0.10977 0.03695s0.05585-0.15277-0.14837-0.31561l-0.25814-0.20583 0.2913-0.42338c0.42502-0.61775 0.9661-1.8192 1.1784-2.6165 0.23171-0.87037 0.31989-2.74 0.17358-3.6804-0.567-3.645-3.396-6.5891-7.06-7.3471-1.097-0.227-2.9038-0.1838-3.9454 0.0943-1.6396 0.4376-2.9801 1.2068-4.1372 2.3739-2.2464 2.2658-3.1061 5.4008-2.3251 8.4798 0.80941 3.1908 3.219 5.5975 6.4674 6.4595 1.3957 0.37038 3.6507 0.3166 4.7651-0.11363 0.08743-0.03375 0.15625-0.01935 0.15625 0.0327 0 0.05116 0.04085 0.20046 0.09077 0.33176 0.07893 0.20759 0.10964 0.22307 0.23548 0.11863 0.12726-0.10562 0.25899 0.0013 1.0923 0.88629 5.6903 6.0436 7.9189 8.3977 7.9558 8.4037 0.02418 0.0039 0.99851-0.94679 2.1652-2.1127zm-15.156-8.782c-3.2666-0.471-5.7712-2.911-6.3893-6.225l-0.07776-0.41689 0.039934 0.493c0.10549 1.3023 0.97854 2.9958 2.1303 4.1324 1.229 1.2128 3.1471 2.1118 4.4754 2.0977 0.28987-0.0031 0.25623-0.01834-0.17857-0.08105zm2.0312 0.03602c-0.11049-0.02128-0.2913-0.02128-0.40179 0s-0.02009 0.03869 0.20089 0.03869 0.31138-0.01741 0.20089-0.03869zm1.6636-0.38474c0.96693-0.37289 1.9075-1.0219 2.7447-1.8939 0.86688-0.90297 1.3585-1.7049 1.7326-2.8264 0.24444-0.73276 0.28337-0.98446 0.31075-2.0089l0.03131-1.1712-0.07286 1.0714c-0.08437 1.2407-0.25607 1.9705-0.6793 2.8875-0.73124 1.5844-2.1539 3.0123-3.6792 3.6928-0.23214 0.10356-0.7435 0.28296-1.1364 0.39866-0.51562 0.15185-0.60608 0.19697-0.32523 0.16221 0.21398-0.02648 0.69712-0.16695 1.0736-0.31214zm-1.15-0.772c2.954-0.688 5.064-3.554 4.884-6.6338-0.097-1.674-0.667-2.9279-1.891-4.1653-0.685-0.6921-0.933-0.8761-1.654-1.2297-0.994-0.4871-1.797-0.676-2.884-0.6782-1.0476-0.0021-1.8964 0.1973-2.909 0.6832-2.2561 1.0827-3.7569 3.6942-3.5488 6.1758 0.13864 1.653 0.74058 2.9696 1.8894 4.1326 1.5949 1.6146 3.8418 2.2454 6.113 1.7162zm-8.7999-8.021c0.1975-0.858 0.917-2.2898 1.5092-3.0034 1.001-1.2061 2.4893-2.1266 4.0313-2.4935 0.6836-0.1626 0.9768-0.1841 1.9644-0.1437 0.63839 0.026085 1.2812 0.069193 1.4286 0.095797 0.14732 0.026604 0.04687-0.01211-0.22321-0.08603-0.3622-0.09913-0.81911-0.12579-1.7411-0.10161-1.1131 0.0291-1.335 0.0624-2.0286 0.3041-1.2597 0.4389-2.0578 0.9426-3.0159 1.9031-1.5267 1.5307-2.2548 3.2588-2.2187 5.2662l0.012035 0.66964 0.069184-0.89286c0.038-0.4911 0.1339-1.1741 0.2131-1.5178zm14.608 0.0302c-0.378-1.762-1.598-3.5043-3.176-4.5345-0.634-0.4137-1.866-0.9884-2.113-0.9853-0.0648 0.0008304 0.21066 0.13473 0.61214 0.29757 1.7038 0.69106 2.9715 1.7988 3.856 3.3697 0.33937 0.60268 0.69928 1.6323 0.78905 2.2572 0.03861 0.26878 0.07892 0.37353 0.09759 0.2536 0.01749-0.11238-0.012-0.40861-0.06555-0.65829z" transform="translate(0 1022.4)" stroke="#fff" stroke-width=".089286"/>
   <path id="path4151" d="m17.762 24.895c-2.471-2.62-4.602-4.868-4.736-4.997l-0.24387-0.23365-0.75502 0.13287c-0.932 0.165-2.7615 0.168-3.6566 0.007-3.7549-0.674-6.8327-3.545-7.8585-7.329-0.24819-0.915-0.34232-3.0275-0.18005-4.0404 0.21539-1.3444 0.79305-2.8124 1.585-4.0278 0.4446-0.6824 1.9919-2.2152 2.7036-2.6783 3.0322-1.9728 6.6265-2.2373 9.8091-0.7219 2.1577 1.0274 3.678 2.5403 4.7164 4.693 1.3862 2.8739 1.3318 6.1013-0.15057 8.9384l-0.43024 0.82343 0.95177 0.87894c0.91812 0.84786 6.5217 5.8897 7.8546 7.0672l0.65109 0.57518s-0.55148 2.8352-1.4997 3.8221c-1.0653 1.1088-4.1986 1.8568-4.2234 1.8554-0.02484-0.0014-2.0666-2.1458-4.5373-4.7654zm6.712 1.2924c1.1227-1.1247 2.0243-2.0956 2.0037-2.1576-0.02064-0.06193-0.45706-0.4924-0.9698-0.9566l-0.93226-0.84399 0.9375 0.89941 0.9375 0.89941-2.0772 2.0808-2.0772 2.0808-1.223-1.2946c-0.67264-0.71205-1.6026-1.6763-2.0666-2.1429-0.46401-0.46652-0.20117-0.16518 0.58408 0.66964 0.78526 0.83482 1.7006 1.8092 2.0341 2.1652 0.33352 0.35603 0.65175 0.64687 0.70719 0.64631 0.05544-0.000535 1.0193-0.92124 2.142-2.046zm-6.996-3.087c-0.366-0.368-0.686-0.669-0.71-0.669-0.02455 0 0.25468 0.30134 0.62053 0.66964s0.68526 0.66964 0.70982 0.66964c0.02455 0-0.25468-0.30134-0.62053-0.66964zm6.6964-1.25c-0.21688-0.22098-0.41441-0.40179-0.43897-0.40179-0.02455 0 0.1328 0.1808 0.34968 0.40179 0.21688 0.22098 0.41441 0.40178 0.43897 0.40178 0.02455 0-0.1328-0.1808-0.34968-0.40178zm-0.536-0.428c0-0.01459-0.17076-0.18535-0.37946-0.37946l-0.37946-0.35294 0.35294 0.37946c0.32823 0.3529 0.40599 0.42049 0.40599 0.35294zm-0.98214-0.89427c0-0.01537-0.13058-0.14595-0.29018-0.29018l-0.29018-0.26224 0.26224 0.29018c0.24444 0.27049 0.31812 0.33122 0.31812 0.26224zm-0.98214-0.89863c0-0.01854-0.07031-0.08885-0.15625-0.15625-0.14161-0.11106-0.14477-0.1079-0.03371 0.03371 0.11664 0.14873 0.18996 0.19602 0.18996 0.12254zm-8.3929-0.62638c0-0.0193-0.06235-0.05902-0.13857-0.08826-0.07946-0.03049-0.1153-0.01552-0.08402 0.03509 0.05243 0.08484 0.22258 0.12549 0.22259 0.05317zm-1.6518-0.22102c0.19852-0.03738-0.25754-0.05251-1.0268-0.03406-0.76116 0.01825-1.4442 0.04617-1.5179 0.06204-0.29019 0.06251 2.2101 0.03503 2.5446-0.02798zm-2.7885-0.07031c-0.060449-0.02446-0.18099-0.02595-0.26786-0.0033-0.086872 0.02264-0.037414 0.04265 0.10991 0.04447 0.14732 0.0018 0.2184-0.0167 0.15795-0.04116v0.000004zm-1.6308-0.388c-0.073661-0.0476-0.17411-0.08655-0.22321-0.08655-0.049107 0-0.029018 0.03895 0.044643 0.08655s0.17411 0.08655 0.22321 0.08655c0.049107 0 0.029018-0.03895-0.044643-0.08655zm-1.028-0.472c-0.3935-0.207-0.961-0.566-1.261-0.797-0.7718-0.595-1.8962-1.825-2.3011-2.518-0.3599-0.615-0.5219-0.797-0.2654-0.298 0.50806 0.98861 1.7427 2.3856 2.668 3.0186 0.51485 0.35226 1.6541 0.97236 1.7857 0.97198 0.0491-0.001-0.2327-0.17-0.6262-0.378zm2.7002-0.47544c-0.029669-0.02967-0.10668-0.03284-0.17113-0.007-0.071226 0.0285-0.050069 0.04966 0.053943 0.05394 0.094122 0.0039 0.14686-0.01723 0.11719-0.04689v-0.000004zm-0.3571-0.089c-0.029669-0.02967-0.10668-0.03284-0.17113-0.007-0.071226 0.0285-0.050069 0.04966 0.053944 0.05394 0.094122 0.0039 0.14686-0.01722 0.11719-0.04689v-0.000004zm3.1306-0.97747c0.93431-0.18811 2.1717-0.8081 2.865-1.4355 1.4265-1.2909 2.1817-2.9717 2.181-4.8545 0-1.7891-0.528-3.0622-1.835-4.4297-0.736-0.7693-0.903-0.8946-1.713-1.2841-1.16-0.557-1.655-0.6707-2.908-0.6682-1.1663 0.0025-1.9357 0.1903-2.9482 0.7201-2.3156 1.2114-3.7039 3.8349-3.3832 6.3929 0.47851 3.8162 3.9642 6.3187 7.7418 5.5581zm6.0118-0.68882c-0.08818-0.08752-0.09844-0.07727-0.04998 0.04998 0.03353 0.08806 0.08345 0.13761 0.11094 0.11012s0.000057-0.09953-0.06096-0.1601zm0.43425-1.5811c0.38296-0.76166 0.80875-1.9379 0.79833-2.2054-0.0035-0.08956-0.08603 0.11842-0.18342 0.46217-0.0974 0.34375-0.37333 1.0368-0.61318 1.5402-0.23985 0.50335-0.41892 0.91518-0.39793 0.91518s0.19928-0.32044 0.3962-0.7121zm-16.059-0.599c-0.10525-0.181-0.13067-0.12307-0.044512 0.10146 0.03062 0.07979 0.074482 0.12627 0.09747 0.10328s-0.0008393-0.11512-0.052958-0.20474zm-0.574-2.059c-0.022638-0.08687-0.042649-0.03741-0.044468 0.10991-0.00182 0.14732 0.016702 0.2184 0.04116 0.15795 0.024457-0.06045 0.025946-0.18098 0.00331-0.26786zm-0.0399-1.8094c0.0174-0.7612 0.0027-1.2441-0.0327-1.0731-0.0752 0.3624-0.1068 1.2142-0.0781 2.0995 0.030446 0.93919 0.075351 0.5231 0.11081-1.0268zm17.627-0.3795c-0.02477-0.061384-0.04504-0.011161-0.04504 0.11161s0.02027 0.17299 0.04504 0.11161c0.02477-0.061384 0.02477-0.16183 0-0.22321zm-16.158-0.4c-0.0227-0.0869-0.0427-0.0375-0.0445 0.1099-0.00182 0.14732 0.016702 0.2184 0.04116 0.15795 0.024457-0.060449 0.025946-0.18098 0.00331-0.26786zm16.01-0.5898c-0.24-1.2218-1.014-2.8756-1.698-3.6307l-0.28324-0.3125 0.2604 0.35714c0.91233 1.2513 1.6909 3.1357 1.7304 4.1884 0.0066 0.17583 0.02608 0.2145 0.0537 0.10662 0.02384-0.093099-0.0044-0.41213-0.06284-0.70895zm-15.924 0.097c-0.024769-0.061384-0.045034-0.011161-0.045034 0.11161s0.020265 0.17299 0.045034 0.11161c0.024769-0.061384 0.024769-0.16183 0-0.22321zm14.622-0.1945c-0.03284-0.13085-0.07693-0.22069-0.09798-0.19964-0.02105 0.021046-0.0114 0.14532 0.02144 0.27617s0.07693 0.22069 0.09798 0.19964c0.02105-0.021046 0.0114-0.14532-0.02144-0.27617zm-15.946-0.4975c0.0016-0.082-0.0271-0.0647-0.0741 0.0447-0.0422 0.0982-0.0756 0.2589-0.0741 0.3571 0.0021 0.1436 0.0166 0.1348 0.0741-0.0446 0.0393-0.1228 0.0726-0.2835 0.0741-0.3572zm1.8342-0.6696c0.0322-0.0982-0.0399 0.0223-0.1601 0.2678-0.1203 0.2456-0.2428 0.567-0.2722 0.7143-0.0467 0.2333 0.2691-0.4842 0.4323-0.9821zm13.817 0.34152c-0.10525-0.181-0.13067-0.12307-0.04451 0.10146 0.03062 0.079795 0.07448 0.12627 0.09747 0.10328 0.02299-0.022988-0.000804-0.11512-0.05296-0.20474zm-0.179-0.4464c-0.10525-0.181-0.13067-0.12307-0.04451 0.10146 0.03062 0.079795 0.07448 0.12627 0.09747 0.10328 0.02299-0.022988-0.000803-0.11512-0.05296-0.20474zm-15.103-0.2523c0-0.049107-0.038948-0.029018-0.086551 0.044643s-0.086551 0.17411-0.086551 0.22321c0 0.049107 0.038948 0.029018 0.086551-0.044643s0.086551-0.17411 0.086551-0.22321zm0.2634-0.5803c0.1002-0.2105 0.0984-0.2133-0.0326-0.0499-0.0763 0.0953-0.1388 0.2125-0.1388 0.2604 0 0.11344 0.041241 0.062789 0.1714-0.21052zm0.36431-0.625c0.052563-0.098214 0.075479-0.17857 0.050926-0.17857-0.024554 0-0.087649 0.080357-0.14021 0.17857-0.052563 0.098214-0.075479 0.17857-0.050926 0.17857 0.024554 0 0.087649-0.080357 0.14021-0.17857zm0.5471-0.78125c0.1111-0.1417 0.1079-0.1448-0.0337-0.0338-0.1487 0.1167-0.196 0.19-0.1225 0.19 0.018541 0 0.088853-0.070312 0.15625-0.15625zm2.1502-1.9645c0.7824-0.5103 1.7583-0.9397 2.6911-1.1843 0.3511-0.092 0.5501-0.1695 0.4421-0.1722-0.3542-0.0089-1.6643 0.4498-2.4147 0.8456-0.8897 0.4691-1.5845 0.9982-2.2997 1.7511-0.4803 0.5056-0.4618 0.4939 0.1786-0.1136 0.3928-0.3727 1.024-0.8797 1.4026-1.1266zm11.588 1.5593c0-0.014123-0.21094-0.22506-0.46875-0.46875l-0.46875-0.44307 0.44307 0.46875c0.41171 0.43557 0.49443 0.5097 0.49443 0.44307zm-1.16-1.0795c0-0.018541-0.07031-0.088853-0.15625-0.15625-0.14161-0.11106-0.14477-0.1079-0.03371 0.03371 0.11664 0.14873 0.18996 0.19602 0.18996 0.12254zm-7.1669-0.3774c-0.0297-0.0296-0.1067-0.0328-0.1712-0.007-0.071226 0.028502-0.050069 0.049659 0.053943 0.053943 0.094122 0.00388 0.14686-0.017226 0.11719-0.046894zm5.426-0.74963c-0.03035-0.049107-0.10303-0.08867-0.16152-0.087918-0.06389 0.0008215-0.05288 0.035913 0.02759 0.087918 0.17153 0.11085 0.20244 0.11085 0.13393 0zm-0.402-0.1786c-0.07366-0.047603-0.17411-0.086551-0.22321-0.086551-0.04911 0-0.02902 0.038948 0.04464 0.086551s0.17411 0.086551 0.22321 0.086551c0.04911 0 0.02902-0.038948-0.04464-0.086551zm-0.459-0.1803c-0.22-0.1288-1.601-0.4444-1.907-0.436-0.14732 0.00406 0.03348 0.06282 0.40178 0.13057 0.3683 0.067752 0.85045 0.18071 1.0714 0.25102 0.47846 0.15222 0.6348 0.17185 0.43373 0.054432zm-4.0703-0.4139c-0.060449-0.024457-0.18098-0.025946-0.26786-0.00331-0.086872 0.022638-0.037414 0.042649 0.10991 0.044468 0.14732 0.00182 0.2184-0.016702 0.15795-0.041158zm1.6964-0.089286c-0.06045-0.024457-0.18098-0.025946-0.26786-0.00331-0.08687 0.022638-0.03741 0.042649 0.10991 0.044468 0.14732 0.00182 0.2184-0.016702 0.15795-0.041158z" transform="translate(0 1022.4)" stroke="#fff" stroke-width=".089286"/>
  </g>
 </g>
</svg>
